<svg xmlns="http://www.w3.org/2000/svg" width="980" height="660" viewBox="0 0 980 660" role="img" aria-labelledby="title desc">
<title id="title">EastBridge intelligent enterprise bridge</title>
<desc id="desc">A bridge connecting WORKFLOWS, AGENTS, data, cloud and AI agents across a smart enterprise network.</desc>
<defs>
  <linearGradient id="bg" x1="0" y1="0" x2="1" y2="1"><stop offset="0" stop-color="#0a2a63"/><stop offset="0.48" stop-color="#0b63ce"/><stop offset="1" stop-color="#14a9bd"/></linearGradient>
  <linearGradient id="green" x1="0" y1="0" x2="1" y2="1"><stop stop-color="#14a9bd"/><stop offset="1" stop-color="#5ba83d"/></linearGradient>
  <linearGradient id="line" x1="0" x2="1"><stop stop-color="#6fe8f2"/><stop offset="1" stop-color="#5ba83d"/></linearGradient>
  <filter id="glow" x="-40%" y="-40%" width="180%" height="180%"><feGaussianBlur stdDeviation="5" result="b"/><feMerge><feMergeNode in="b"/><feMergeNode in="SourceGraphic"/></feMerge></filter>
  <filter id="shadow" x="-20%" y="-20%" width="140%" height="140%"><feDropShadow dx="0" dy="20" stdDeviation="24" flood-color="#071f4e" flood-opacity="0.34"/></filter>
</defs>
<rect width="980" height="660" rx="44" fill="url(#bg)" opacity="0.10"/>
<path d="M50 520 C170 430 300 450 430 380 C540 320 635 315 760 250 C835 212 895 178 940 130" fill="none" stroke="#ffffff" stroke-opacity="0.07" stroke-width="96"/>
<g opacity=".45">
  <path d="M78 110H902" stroke="#ffffff" stroke-opacity=".08"/><path d="M78 210H902" stroke="#ffffff" stroke-opacity=".08"/><path d="M78 310H902" stroke="#ffffff" stroke-opacity=".08"/><path d="M78 410H902" stroke="#ffffff" stroke-opacity=".08"/>
  <path d="M180 64V584" stroke="#ffffff" stroke-opacity=".08"/><path d="M300 64V584" stroke="#ffffff" stroke-opacity=".08"/><path d="M420 64V584" stroke="#ffffff" stroke-opacity=".08"/><path d="M540 64V584" stroke="#ffffff" stroke-opacity=".08"/><path d="M660 64V584" stroke="#ffffff" stroke-opacity=".08"/><path d="M780 64V584" stroke="#ffffff" stroke-opacity=".08"/>
</g>
<g filter="url(#shadow)">
  <path d="M165 392 C285 235 497 180 825 379" fill="none" stroke="#071f4e" stroke-width="18" stroke-linecap="round"/>
  <path d="M165 392 C285 235 497 180 825 379" fill="none" stroke="url(#line)" stroke-width="7" stroke-linecap="round"/>
  <path d="M205 420 C333 306 515 286 790 419" fill="none" stroke="#ffffff" stroke-opacity=".25" stroke-width="2" stroke-linecap="round"/>
</g>
<g filter="url(#glow)">
  <circle cx="165" cy="392" r="9" fill="#6fe8f2"/><circle cx="293" cy="278" r="8" fill="#0b63ce"/><circle cx="442" cy="218" r="9" fill="#14a9bd"/><circle cx="615" cy="249" r="9" fill="#5ba83d"/><circle cx="825" cy="379" r="9" fill="#6fe8f2"/>
</g>
<g font-family="Inter, Arial, sans-serif" font-weight="800" text-anchor="middle">
  <g transform="translate(210 484)"><rect x="-72" y="-30" width="144" height="60" rx="16" fill="#ffffff" fill-opacity=".13" stroke="#ffffff" stroke-opacity=".28"/><text y="5" fill="#ffffff" font-size="18">WORKFLOWS</text></g>
  <g transform="translate(362 535)"><rect x="-72" y="-30" width="144" height="60" rx="16" fill="#ffffff" fill-opacity=".13" stroke="#ffffff" stroke-opacity=".28"/><text y="5" fill="#ffffff" font-size="18">AGENTS</text></g>
  <g transform="translate(520 500)"><rect x="-82" y="-30" width="164" height="60" rx="16" fill="#ffffff" fill-opacity=".13" stroke="#ffffff" stroke-opacity=".28"/><text y="5" fill="#ffffff" font-size="18">DATA</text></g>
  <g transform="translate(675 538)"><rect x="-82" y="-30" width="164" height="60" rx="16" fill="#ffffff" fill-opacity=".13" stroke="#ffffff" stroke-opacity=".28"/><text y="5" fill="#ffffff" font-size="18">CLOUD</text></g>
  <g transform="translate(805 476)"><rect x="-82" y="-30" width="164" height="60" rx="16" fill="#ffffff" fill-opacity=".13" stroke="#ffffff" stroke-opacity=".28"/><text y="5" fill="#ffffff" font-size="18">AI AGENTS</text></g>
</g>
<g transform="translate(490 310)" filter="url(#shadow)">
  <circle r="92" fill="#071f4e" fill-opacity=".58" stroke="#6fe8f2" stroke-opacity=".45" stroke-width="2"/>
  <circle r="58" fill="#ffffff" fill-opacity=".08" stroke="#ffffff" stroke-opacity=".25"/>
  <text y="-8" font-family="Inter, Arial, sans-serif" font-size="36" font-weight="900" fill="#ffffff" text-anchor="middle">Autonomous Ops</text>
  <text y="28" font-family="Inter, Arial, sans-serif" font-size="16" font-weight="700" fill="#dffaff" text-anchor="middle" letter-spacing="2">AI WORKFLOW ORCHESTRATION</text>
</g>
<g stroke="#ffffff" stroke-opacity=".25" fill="none">
  <path d="M395 310 H292 V454"/><path d="M585 310 H675 V508"/><path d="M490 402 V470 H520"/><path d="M490 218 V162"/>
</g>
<g filter="url(#glow)"><circle cx="292" cy="454" r="5" fill="#6fe8f2"/><circle cx="675" cy="508" r="5" fill="#5ba83d"/><circle cx="520" cy="470" r="5" fill="#14a9bd"/><circle cx="490" cy="162" r="5" fill="#6fe8f2"/></g>
<g font-family="Inter, Arial, sans-serif" font-weight="900" fill="#ffffff" opacity=".95">
  <text x="490" y="108" font-size="30" text-anchor="middle" letter-spacing="8">EASTBRIDGE</text>
  <text x="490" y="138" font-size="16" text-anchor="middle" letter-spacing="5" fill="#dffaff">TECHNOLOGIES</text>
</g>
<g opacity=".82">
  <rect x="240" y="76" width="6" height="74" rx="3" fill="#071f4e"/><rect x="292" y="52" width="8" height="110" rx="4" fill="#0b63ce"/><rect x="354" y="34" width="10" height="142" rx="5" fill="#14a9bd"/><rect x="620" y="50" width="8" height="118" rx="4" fill="#0f988a"/><rect x="678" y="78" width="8" height="92" rx="4" fill="#5ba83d"/><rect x="730" y="108" width="8" height="62" rx="4" fill="#5ba83d"/>
</g>
</svg>