<svg xmlns="http://www.w3.org/2000/svg" width="980" height="660" viewBox="0 0 980 660" role="img" aria-labelledby="title desc">
<title id="title">EastBridge AI agents and smart enterprise bridge</title>
<desc id="desc">A transparent smart enterprise bridge visual connecting ERP, CRM, data, cloud, automation and AI agents.</desc>
<defs>
  <linearGradient id="panel" x1="0" y1="0" x2="1" y2="1"><stop offset="0" stop-color="#0a2a63" stop-opacity="0.72"/><stop offset="0.55" stop-color="#0b63ce" stop-opacity="0.50"/><stop offset="1" stop-color="#14a9bd" stop-opacity="0.42"/></linearGradient>
  <linearGradient id="line" x1="0" x2="1"><stop stop-color="#6fe8f2"/><stop offset="0.55" stop-color="#0b63ce"/><stop offset="1" stop-color="#2fb878"/></linearGradient>
  <filter id="shadow" x="-20%" y="-20%" width="140%" height="140%"><feDropShadow dx="0" dy="22" stdDeviation="24" flood-color="#071f4e" flood-opacity="0.30"/></filter>
  <filter id="glow" x="-60%" y="-60%" width="220%" height="220%"><feGaussianBlur stdDeviation="5" result="b"/><feMerge><feMergeNode in="b"/><feMergeNode in="SourceGraphic"/></feMerge></filter>
</defs>
<g filter="url(#shadow)">
  <rect x="84" y="64" width="812" height="520" rx="34" fill="url(#panel)" stroke="#ffffff" stroke-opacity="0.30"/>
  <rect x="116" y="98" width="748" height="452" rx="28" fill="#071f4e" fill-opacity="0.18" stroke="#ffffff" stroke-opacity="0.15"/>
</g>
<g opacity="0.42" stroke="#ffffff" stroke-opacity="0.16">
  <path d="M160 145H820"/><path d="M160 220H820"/><path d="M160 295H820"/><path d="M160 370H820"/><path d="M160 445H820"/>
  <path d="M250 120V500"/><path d="M360 120V500"/><path d="M490 120V500"/><path d="M620 120V500"/><path d="M735 120V500"/>
</g>
<path d="M130 438 C260 350 372 372 495 306 C618 240 732 220 870 138" fill="none" stroke="#ffffff" stroke-opacity="0.10" stroke-width="86" stroke-linecap="round"/>
<g filter="url(#shadow)">
  <path d="M190 405 C318 255 510 220 790 388" fill="none" stroke="#071f4e" stroke-width="17" stroke-linecap="round"/>
  <path d="M190 405 C318 255 510 220 790 388" fill="none" stroke="url(#line)" stroke-width="7" stroke-linecap="round"/>
  <path d="M230 426 C340 320 500 300 750 420" fill="none" stroke="#ffffff" stroke-opacity="0.22" stroke-width="2" stroke-linecap="round"/>
</g>
<g filter="url(#glow)">
  <circle cx="190" cy="405" r="9" fill="#6fe8f2"/><circle cx="318" cy="292" r="7" fill="#0b63ce"/><circle cx="490" cy="236" r="8" fill="#14a9bd"/><circle cx="642" cy="264" r="8" fill="#2fb878"/><circle cx="790" cy="388" r="9" fill="#6fe8f2"/>
</g>
<g transform="translate(495 322)" filter="url(#shadow)">
  <circle r="82" fill="#071f4e" fill-opacity="0.66" stroke="#6fe8f2" stroke-opacity="0.42" stroke-width="2"/>
  <circle r="48" fill="#ffffff" fill-opacity="0.07" stroke="#ffffff" stroke-opacity="0.20"/>
  <text y="-8" font-family="Inter,Arial,sans-serif" font-size="34" font-weight="900" fill="#ffffff" text-anchor="middle">AI Agents</text>
  <text y="28" font-family="Inter,Arial,sans-serif" font-size="15" font-weight="800" fill="#dffaff" text-anchor="middle" letter-spacing="2">SMART ENTERPRISE</text>
</g>
<g font-family="Inter,Arial,sans-serif" font-weight="900" text-anchor="middle" fill="#ffffff">
  <g transform="translate(230 490)"><rect x="-72" y="-30" width="144" height="60" rx="15" fill="#ffffff" fill-opacity=".13" stroke="#ffffff" stroke-opacity=".30"/><text y="6" font-size="18">ERP</text></g>
  <g transform="translate(375 520)"><rect x="-72" y="-30" width="144" height="60" rx="15" fill="#071f4e" fill-opacity=".28" stroke="#ffffff" stroke-opacity=".24"/><text y="6" font-size="18">CRM</text></g>
  <g transform="translate(520 500)"><rect x="-76" y="-30" width="152" height="60" rx="15" fill="#ffffff" fill-opacity=".13" stroke="#ffffff" stroke-opacity=".30"/><text y="6" font-size="18">DATA</text></g>
  <g transform="translate(670 520)"><rect x="-90" y="-30" width="180" height="60" rx="15" fill="#071f4e" fill-opacity=".30" stroke="#ffffff" stroke-opacity=".24"/><text y="6" font-size="17">AUTOMATION</text></g>
  <g transform="translate(800 462)"><rect x="-76" y="-30" width="152" height="60" rx="15" fill="#ffffff" fill-opacity=".13" stroke="#ffffff" stroke-opacity=".30"/><text y="6" font-size="18">CLOUD</text></g>
</g>
<g stroke="#ffffff" stroke-opacity=".24" fill="none"><path d="M413 322 H318 V460"/><path d="M578 322 H670 V490"/><path d="M495 404 V470 H520"/><path d="M495 240 V178"/></g>
<g filter="url(#glow)"><circle cx="318" cy="460" r="5" fill="#6fe8f2"/><circle cx="670" cy="490" r="5" fill="#2fb878"/><circle cx="520" cy="470" r="5" fill="#14a9bd"/><circle cx="495" cy="178" r="5" fill="#6fe8f2"/></g>
<g font-family="Inter,Arial,sans-serif" font-weight="900" fill="#ffffff" opacity=".96">
  <text x="490" y="160" font-size="28" text-anchor="middle" letter-spacing="8">EASTBRIDGE</text>
  <text x="490" y="190" font-size="15" text-anchor="middle" letter-spacing="5" fill="#dffaff">TECHNOLOGIES</text>
</g>
<g opacity=".85">
  <rect x="260" y="124" width="7" height="74" rx="3" fill="#071f4e"/><rect x="318" y="104" width="8" height="105" rx="4" fill="#0b63ce"/><rect x="385" y="86" width="10" height="135" rx="5" fill="#14a9bd"/><rect x="620" y="103" width="8" height="110" rx="4" fill="#0f988a"/><rect x="690" y="126" width="8" height="88" rx="4" fill="#2fb878"/>
</g>
</svg>